<svg width="81" height="81" viewBox="0 0 81 81" fill="none" xmlns="http://www.w3.org/2000/svg">
<path d="M40.23 80.46C62.4484 80.46 80.46 62.4484 80.46 40.23C80.46 18.0116 62.4484 0 40.23 0C18.0116 0 0 18.0116 0 40.23C0 62.4484 18.0116 80.46 40.23 80.46Z" fill="#1D1D1B"/>
<path d="M50.07 12.0996H44.97L41.06 31.6696H40.97L37.42 12.0996H32L38.07 40.3896L32.06 68.3596H37.16L37.84 64.5396H43.89L44.53 68.3596H49.99L44.01 40.2296L50.06 12.0996H50.07ZM38.71 59.9496L41.08 47.4296H41.17L43.17 59.9496H38.71Z" fill="white"/>
</svg>
