<svg width="418" height="418" viewBox="0 0 418 418" fill="none" xmlns="http://www.w3.org/2000/svg">
<path d="M0 416.507V373.096H21.4854V379.876H7.28759V391.176H17.594V397.933H7.28759V416.507H0Z" fill="white"/>
<path d="M42.0742 416.507V373.096H49.3618V416.507H42.0742Z" fill="white"/>
<path d="M89.9039 416.507L80.1164 388.798H79.9277V416.507H73.3477V373.096H80.5645L90.3992 400.475H90.5879V373.096H97.2387V416.507H89.8803H89.9039Z" fill="white"/>
<path d="M120.917 416.507V373.096H142.096V379.876H128.228V391.176H135.327V397.933H128.228V409.751H142.096V416.507H120.917V416.507Z" fill="white"/>
<path d="M189.454 416.507V373.096H201.482C208.015 373.096 213.322 377.31 213.322 384.514V405.136C213.322 412.411 208.015 416.507 201.482 416.507H189.454ZM205.963 384.537C205.963 381.924 203.864 379.805 201.223 379.805H196.742V409.798H201.223C203.841 409.798 205.963 407.679 205.963 405.136V384.514V384.537Z" fill="white"/>
<path d="M236.457 416.507V373.096H243.745V416.507H236.457Z" fill="white"/>
<path d="M284.287 416.507L274.499 388.798H274.311V416.507H267.73V373.096H274.947L284.806 400.475H284.994V373.096H291.645V416.507H284.287V416.507Z" fill="white"/>
<path d="M315.606 416.507V373.096H322.894V416.507H315.606Z" fill="white"/>
<path d="M363.436 416.507L353.649 388.798H353.46V416.507H346.88V373.096H354.097L363.931 400.475H364.12V373.096H370.771V416.507H363.413H363.436Z" fill="white"/>
<path d="M410.817 400.993H406.218V394.472H417.869V405.254C417.869 412.458 412.444 417.002 405.581 417.002C398.718 417.002 393.624 412.27 393.624 405.254V384.326C393.624 377.616 399.19 372.578 405.912 372.578C413.459 372.578 417.869 377.498 417.869 385.032V385.997H410.841V385.032C410.841 381.265 408.789 379.358 405.794 379.358C403.105 379.358 400.935 381.336 400.935 384.349V405.278C400.935 407.962 403.034 410.269 405.794 410.269C408.553 410.269 410.841 407.962 410.841 405.278V400.993H410.817Z" fill="white"/>
<path d="M95.6583 253.57L116.483 321.607C116.908 322.902 117.332 323.208 118.63 323.208H122.497V326.433H95.8706V323.208H102.097C102.946 323.208 103.394 322.666 103.064 321.607L98.0167 304.139H77.8285L77.6162 304.986C72.7814 321.371 74.5031 323.208 80.3992 323.208H81.1539V326.433H61.626V323.208H62.2628C65.8004 323.208 67.9466 321.913 73.2059 304.892L85.0217 266.424C85.8708 263.741 85.8708 263.317 85.3519 262.234L82.7812 256.772V253.547H95.6583V253.57ZM78.9134 300.725H96.9554L88.1585 270.191H87.9462L78.9369 300.725H78.9134Z" fill="white"/>
<path d="M191.105 326.762H188.204L182.945 321.301C180.374 324.079 176.718 327.304 170.492 327.304C158.794 327.304 144.502 315.509 144.502 289.896C144.502 264.282 159.313 252.723 171.435 252.723C176.152 252.723 180.02 255.501 182.379 257.973L188.062 253.264H190.326L190.869 276.947H187.968C183.039 264.635 177.992 256.042 170.893 256.042C164.997 256.042 159.737 261.928 159.737 279.82V299.548C159.737 317.016 164.148 323.867 170.893 323.867C179.902 323.867 185.704 311.554 189.029 299.76H192.142L191.058 326.762H191.105Z" fill="white"/>
<path d="M242.424 287C247.895 287 249.405 285.187 253.06 274.688H255.961V302.232H253.06C249.405 291.732 247.919 290.225 242.424 290.225H241.881C241.245 290.225 240.797 290.649 240.797 291.308V322.172C240.797 322.807 241.221 323.255 241.881 323.255H244.57C254.994 323.255 255.726 322.925 264.428 303.315H267.329L266.15 326.456H219.995V323.231H226.552C227.188 323.231 227.636 322.807 227.636 322.148V257.855C227.636 257.219 227.212 256.796 226.552 256.796H219.995V253.57H264.428L264.853 274.146H261.952C254.334 257.761 253.249 256.796 242.848 256.796H241.881C241.245 256.796 240.797 257.219 240.797 257.855V285.941C240.797 286.576 241.221 287.024 241.881 287.024H242.424V287Z" fill="white"/>
<path d="M341.101 327.304C339.285 323.985 336.266 318.099 334.332 314.662L307.611 266.989H307.187V304.28C307.187 319.7 308.272 323.255 316.102 323.255H317.187V326.48H293.036V323.255H294.215C301.196 323.255 302.918 318.334 302.918 304.28V260.774C302.918 257.031 302.493 256.819 301.833 256.819H293.885V253.594H315.347L341.644 301.055H342.068V275.77C342.068 260.35 340.771 256.796 332.941 256.796H331.856V253.57H356.219V256.796H355.04C348.059 256.796 346.337 261.716 346.337 275.77V327.304H341.078H341.101Z" fill="white"/>
<path d="M208.935 0C156.53 0 114.055 42.3992 114.055 94.7096C114.055 147.02 156.53 189.419 208.935 189.419C261.339 189.419 303.815 147.02 303.815 94.7096C303.815 42.3992 261.339 0 208.935 0ZM230.09 160.957H217.213L215.704 151.964H201.435L199.831 160.957H187.803L201.977 95.1098L187.638 28.4859H200.421L208.793 74.5576H209.006L218.251 28.4859H230.279L215.751 94.7096L230.114 160.933L230.09 160.957Z" fill="white"/>
<path d="M209.029 111.66L203.463 141.111H213.982L209.265 111.66H209.029Z" fill="white"/>
</svg>
