<svg width="178" height="174" viewBox="0 0 178 174" fill="none" xmlns="http://www.w3.org/2000/svg">
<path d="M0 173.281V154.841H9.11V157.721H3.09V162.521H7.46V165.391H3.09V173.281H0Z" fill="#1D1D1B"/>
<path d="M17.8398 173.281V154.841H20.9298V173.281H17.8398Z" fill="#1D1D1B"/>
<path d="M38.1196 173.281L33.9696 161.511H33.8896V173.281H31.0996V154.841H34.1596L38.3396 166.471H38.4196V154.841H41.2396V173.281H38.1196Z" fill="#1D1D1B"/>
<path d="M51.2695 173.281V154.841H60.2495V157.721H54.3695V162.521H57.3795V165.391H54.3695V170.411H60.2495V173.281H51.2695Z" fill="#1D1D1B"/>
<path d="M80.3301 173.281V154.841H85.4301C88.2001 154.841 90.4501 156.631 90.4501 159.691V168.451C90.4501 171.541 88.2001 173.281 85.4301 173.281H80.3301ZM87.3301 159.701C87.3301 158.591 86.4401 157.691 85.3201 157.691H83.4201V170.431H85.3201C86.4301 170.431 87.3301 169.531 87.3301 168.451V159.691V159.701Z" fill="#1D1D1B"/>
<path d="M100.26 173.281V154.841H103.35V173.281H100.26Z" fill="#1D1D1B"/>
<path d="M120.54 173.281L116.39 161.511H116.31V173.281H113.52V154.841H116.58L120.76 166.471H120.84V154.841H123.66V173.281H120.54Z" fill="#1D1D1B"/>
<path d="M133.82 173.281V154.841H136.91V173.281H133.82Z" fill="#1D1D1B"/>
<path d="M154.1 173.281L149.95 161.511H149.87V173.281H147.08V154.841H150.14L154.32 166.471H154.4V154.841H157.22V173.281H154.1Z" fill="#1D1D1B"/>
<path d="M174.19 166.701H172.24V163.931H177.17V168.511C177.17 171.571 174.87 173.501 171.96 173.501C169.05 173.501 166.89 171.491 166.89 168.511V159.621C166.89 156.771 169.25 154.631 172.1 154.631C175.3 154.631 177.17 156.721 177.17 159.921V160.331H174.19V159.921C174.19 158.321 173.32 157.511 172.05 157.511C170.91 157.511 169.99 158.351 169.99 159.631V168.521C169.99 169.661 170.88 170.641 172.05 170.641C173.22 170.641 174.19 169.661 174.19 168.521V166.701Z" fill="#1D1D1B"/>
<path d="M40.43 104.081L49.26 132.981C49.44 133.531 49.62 133.661 50.17 133.661H51.81V135.031H40.52V133.661H43.16C43.52 133.661 43.71 133.431 43.57 132.981L41.43 125.561H32.87L32.78 125.921C30.73 132.881 31.46 133.661 33.96 133.661H34.28V135.031H26V133.661H26.27C27.77 133.661 28.68 133.111 30.91 125.881L35.92 109.541C36.28 108.401 36.28 108.221 36.06 107.761L34.97 105.441V104.071H40.43V104.081ZM33.33 124.111H40.98L37.25 111.141H37.16L33.34 124.111H33.33Z" fill="#1D1D1B"/>
<path d="M80.8996 135.171H79.6696L77.4396 132.851C76.3496 134.031 74.7996 135.401 72.1596 135.401C67.1996 135.401 61.1396 130.391 61.1396 119.511C61.1396 108.631 67.4197 103.721 72.5597 103.721C74.5597 103.721 76.1996 104.901 77.1996 105.951L79.6096 103.951H80.5696L80.7996 114.011H79.5696C77.4796 108.781 75.3396 105.131 72.3296 105.131C69.8296 105.131 67.5996 107.631 67.5996 115.231V123.611C67.5996 131.031 69.4696 133.941 72.3296 133.941C76.1496 133.941 78.6096 128.711 80.0196 123.701H81.3396L80.8797 135.171H80.8996Z" fill="#1D1D1B"/>
<path d="M102.66 118.281C104.98 118.281 105.62 117.511 107.17 113.051H108.4V124.751H107.17C105.62 120.291 104.99 119.651 102.66 119.651H102.43C102.16 119.651 101.97 119.831 101.97 120.111V133.221C101.97 133.491 102.15 133.681 102.43 133.681H103.57C107.99 133.681 108.3 133.541 111.99 125.211H113.22L112.72 135.041H93.1504V133.671H95.9304C96.2004 133.671 96.3904 133.491 96.3904 133.211V105.901C96.3904 105.631 96.2104 105.441 95.9304 105.441H93.1504V104.071H111.99L112.17 112.811H110.94C107.71 105.851 107.25 105.441 102.84 105.441H102.43C102.16 105.441 101.97 105.621 101.97 105.901V117.831C101.97 118.101 102.15 118.291 102.43 118.291H102.66V118.281Z" fill="#1D1D1B"/>
<path d="M144.49 135.401C143.72 133.991 142.44 131.481 141.62 130.031L130.29 109.781H130.11V125.621C130.11 132.171 130.57 133.681 133.89 133.681H134.35V135.051H124.11V133.681H124.61C127.57 133.681 128.3 131.591 128.3 125.621V107.141C128.3 105.551 128.12 105.461 127.84 105.461H124.47V104.091H133.57L144.72 124.251H144.9V113.511C144.9 106.961 144.35 105.451 141.03 105.451H140.57V104.081H150.9V105.451H150.4C147.44 105.451 146.71 107.541 146.71 113.511V135.401H144.48H144.49Z" fill="#1D1D1B"/>
<path d="M88.23 80.46C110.448 80.46 128.46 62.4484 128.46 40.23C128.46 18.0116 110.448 0 88.23 0C66.0116 0 48 18.0116 48 40.23C48 62.4484 66.0116 80.46 88.23 80.46Z" fill="#1D1D1B"/>
<path d="M98.07 12.0996H92.97L89.06 31.6696H88.97L85.42 12.0996H80L86.07 40.3896L80.06 68.3596H85.16L85.84 64.5396H91.89L92.53 68.3596H97.99L92.01 40.2296L98.06 12.0996H98.07ZM86.71 59.9496L89.08 47.4296H89.17L91.17 59.9496H86.71Z" fill="white"/>
</svg>
